# xmcd
#
# Track frame offsets: 
#        150
#        15602
#        36578
#        61257
#        84510
#        104659
#        126427
#        145291
#        164694
#        186606
#        209031
#        224970
#
# Disc length: 3226 seconds
#
# Revision: 0
# Processed by: cddbd v1.5.2PL0 Copyright (c) Steve Scherf et al.
# Submitted via: ExactAudioCopy v1.1
#
DISCID=ce0c980c
DTITLE=Arne Kopfermann - Liebe ohne Ende
DYEAR=2015
DGENRE=Christian
TTITLE0=Michael Janz - Irgendwas bleibt
TTITLE1=Anja S. Lehmann - Wir fallen hin
TTITLE2=Tobias Taddy - Aufbruch in ein unbekanntes Land
TTITLE3=Dania König - Liebe ist
TTITLE4=Michael Janz - Liebe unendlich
TTITLE5=Tobias Taddy - Wie lange
TTITLE6=Anja S. Lehmann - Du lebst
TTITLE7=Tobias Taddy - Wertvoll
TTITLE8=Anja S. Lehmann - Wir beten für Segen
TTITLE9=Michael Janz - Gott trocknet deine Tränen
TTITLE10=Dania König - Liebe ohne Ende
TTITLE11=Anja S. Lehmann - Vergeben
EXTD=
EXTT0=
EXTT1=
EXTT2=
EXTT3=
EXTT4=
EXTT5=
EXTT6=
EXTT7=
EXTT8=
EXTT9=
EXTT10=
EXTT11=
PLAYORDER=
